<svg xmlns="http://www.w3.org/2000/svg" width="6.483" height="6.483">
  <path fill="none" stroke="#000" stroke-width=".6" stroke-miterlimit="10" d="M5.082 3.243h1.4"/>
  <path d="M1.736 4.307c-.187-.264-.066-.638.22-.638.21 0 .33.303.165.47-.182.185-.14.295.1.295.3 0 .51-.353.73-1.233.21-.88.165-1.078-.275-1.078-.307 0-.68.318-.813.692-.022.076-.09.1-.132.043-.154-.13.33-.67.748-.836.34-.12.44-.12.737.033.308.154.385.154.66.01.33-.164.78-.087.935.155.132.23-.066.56-.34.56-.31 0-.342-.175-.078-.46.163-.188.152-.2-.167-.2-.418 0-.484.11-.748 1.244-.22.945-.154 1.143.34 1.022.298-.08.65-.376.738-.63.033-.087.088-.12.132-.076.12.11-.23.595-.55.727-.363.176-.65.165-1.012-.02-.264-.134-.33-.134-.517 0-.308.22-.682.185-.87-.09z"/>
  <path fill="none" stroke="#000" stroke-width=".6" stroke-miterlimit="10" d="M0 3.243h1.4"/>
</svg>
