<svg xmlns="http://www.w3.org/2000/svg" width="6.483" height="6.483">
  <path fill="none" stroke="#000" stroke-width=".6" stroke-miterlimit="10" d="M0 3.243h6.483"/>
  <path d="M8.15 214.91c-17-24-6-58 20-58 19 0 30 28 15 43-17 17-13 27 9 27 27 0 46-32 66-112 19-80 15-98-25-98-28 0-62 29-74 63-2 7-8 9-12 4-14-12 30-61 68-76 31-11 40-11 67 3 28 14 35 14 60 1 30-15 71-8 85 14 12 21-6 51-31 51-28 0-31-16-7-42 15-17 14-18-15-18-38 0-44 10-68 113-20 86-14 104 31 93 27-7 59-34 67-57 3-8 8-11 12-7 11 10-21 54-50 66-33 16-59 15-92-2-24-12-30-12-47 0-28 20-62 17-79-8z" transform="translate(1.646 3.9415) scale(0.011)"/>
</svg>
