<svg width="7" height="8" viewBox="0 0 7 8" fill="none" xmlns="http://www.w3.org/2000/svg">
<circle cx="3.50911" cy="6.45226" r="1.21949" fill="#aaa"/>
<path d="M2.07195 5.43068C1.80248 5.15312 1.61137 4.80911 1.5181 4.43368C1.42483 4.05824 1.43271 3.6648 1.54095 3.2934C1.64919 2.922 1.85393 2.58593 2.1343 2.31939C2.41467 2.05285 2.76068 1.86538 3.13707 1.77606C3.51347 1.68674 3.90681 1.69876 4.27704 1.81091C4.64728 1.92305 4.98119 2.1313 5.24476 2.41447C5.50833 2.69763 5.69215 3.04558 5.77751 3.4229C5.86287 3.80021 5.84671 4.1934 5.73068 4.56244" stroke="#aaa" stroke-width="0.5"/>
<path d="M4.91193 5.53978L5.07061 3.69189L6.59159 4.75326L4.91193 5.53978Z" fill="#aaa"/>
</svg>
